<svg width="47" height="49" viewBox="0 0 47 49" fill="none" xmlns="http://www.w3.org/2000/svg">
<path fill-rule="evenodd" clip-rule="evenodd" d="M11.75 6.125C10.1919 6.125 8.69752 6.77031 7.59575 7.91897C6.49397 9.06763 5.875 10.6255 5.875 12.25V36.75C5.875 38.3745 6.49397 39.9324 7.59575 41.081C8.69752 42.2297 10.1919 42.875 11.75 42.875H35.25C36.8081 42.875 38.3025 42.2297 39.4043 41.081C40.506 39.9324 41.125 38.3745 41.125 36.75V12.25C41.125 10.6255 40.506 9.06763 39.4043 7.91897C38.3025 6.77031 36.8081 6.125 35.25 6.125H11.75ZM8.8125 12.25C8.8125 11.4378 9.12199 10.6588 9.67287 10.0845C10.2238 9.51016 10.9709 9.1875 11.75 9.1875H35.25C36.0291 9.1875 36.7762 9.51016 37.3271 10.0845C37.878 10.6588 38.1875 11.4378 38.1875 12.25V36.75C38.1875 37.5622 37.878 38.3412 37.3271 38.9155C36.7762 39.4898 36.0291 39.8125 35.25 39.8125H11.75C10.9709 39.8125 10.2238 39.4898 9.67287 38.9155C9.12199 38.3412 8.8125 37.5622 8.8125 36.75V12.25Z" fill="#050505"/>
</svg>
