<svg width="32" height="32" viewBox="0 0 32 32" fill="none" xmlns="http://www.w3.org/2000/svg">
<path d="M21.707 12.707C21.8892 12.5184 21.99 12.2658 21.9877 12.0036C21.9854 11.7414 21.8803 11.4906 21.6949 11.3052C21.5095 11.1198 21.2586 11.0146 20.9964 11.0124C20.7342 11.0101 20.4816 11.1109 20.293 11.293L13.5 18.086L10.707 15.293C10.5184 15.1109 10.2658 15.0101 10.0036 15.0124C9.74144 15.0146 9.49063 15.1198 9.30522 15.3052C9.11981 15.4906 9.01465 15.7414 9.01237 16.0036C9.01009 16.2658 9.11088 16.5184 9.29304 16.707L12.793 20.207C12.9806 20.3945 13.2349 20.4998 13.5 20.4998C13.7652 20.4998 14.0195 20.3945 14.207 20.207L21.707 12.707Z" fill="black"/>
<path fill-rule="evenodd" clip-rule="evenodd" d="M8 4C6.93913 4 5.92172 4.42143 5.17157 5.17157C4.42143 5.92172 4 6.93913 4 8V24C4 25.0609 4.42143 26.0783 5.17157 26.8284C5.92172 27.5786 6.93913 28 8 28H24C25.0609 28 26.0783 27.5786 26.8284 26.8284C27.5786 26.0783 28 25.0609 28 24V8C28 6.93913 27.5786 5.92172 26.8284 5.17157C26.0783 4.42143 25.0609 4 24 4H8ZM6 8C6 7.46957 6.21071 6.96086 6.58579 6.58579C6.96086 6.21071 7.46957 6 8 6H24C24.5304 6 25.0391 6.21071 25.4142 6.58579C25.7893 6.96086 26 7.46957 26 8V24C26 24.5304 25.7893 25.0391 25.4142 25.4142C25.0391 25.7893 24.5304 26 24 26H8C7.46957 26 6.96086 25.7893 6.58579 25.4142C6.21071 25.0391 6 24.5304 6 24V8Z" fill="black"/>
</svg>
