<svg width="12" height="12" viewBox="0 0 12 12" fill="none" xmlns="http://www.w3.org/2000/svg">
<path d="M7.5 5H5V7M7.5 5V7M7.5 5V1.5H5M7.5 7H5M7.5 7L9 6.5L10.5 5L10 5.5H9.5H8L11 7L9.5 6.5H10.5L11 5M5 7H1.5V5M9 7H9.5L8 6L7 3L6 2L5 2.5V3L5.5 4.5L6.16667 3.5M6.16667 3.5L6 3H4.5L7 2L6.5 3L6.33333 3.25M6.16667 3.5L6.33333 3.25M6.5 4V4.5C6.38889 3.83333 6.2 2.65 6.33333 3.25M2.5 5.5H2L4 6V5H3H2V6H2.5L3.5 6.5L5.5 5.5L6 6.5L7 6" stroke="black"/>
<path d="M6.5 5.5V6L6 9L5.5 10H5L6.5 10.5H7H7.5L7 8.5L5 8L7 7.5H7.5L6.5 9.16667M6.5 9.16667L6 10H6.5L5 9V8.5H5.5L6.5 9.16667Z" stroke="black"/>
<path d="M8 1H4.5V4.5H1V7.5H4.5V11H8V7.5H11.5V4.5H8V1Z" stroke="black"/>
</svg>
