<svg width="32" height="32" viewBox="0 0 32 32" fill="none" xmlns="http://www.w3.org/2000/svg">
<path fill-rule="evenodd" clip-rule="evenodd" d="M4.624 6.176C4.80309 5.54905 5.18156 4.99752 5.70212 4.60489C6.22267 4.21226 6.85698 3.99992 7.509 4H24.498C25.1504 4.0001 25.785 4.21288 26.3056 4.60609C26.8262 4.99929 27.2045 5.55149 27.383 6.179L28.955 11.704C28.9849 11.7998 29 11.8996 29 12V14C29 14.7762 28.8193 15.5418 28.4721 16.2361C28.125 16.9303 27.621 17.5343 27 18V24C27 25.0609 26.5786 26.0783 25.8284 26.8284C25.0783 27.5786 24.0609 28 23 28H9C7.93914 28 6.92172 27.5786 6.17157 26.8284C5.42143 26.0783 5 25.0609 5 24V18C4.37867 17.5346 3.87441 16.9307 3.52723 16.2364C3.18006 15.542 2.99953 14.7763 3 14V11.957M5.327 11H26.677L25.46 6.726C25.4004 6.51684 25.2743 6.33281 25.1007 6.2018C24.9271 6.07079 24.7155 5.99994 24.498 6H7.508C7.29099 6.00031 7.07997 6.07121 6.90679 6.202C6.73361 6.33278 6.60768 6.51635 6.548 6.725L5.325 11H5.327ZM5 13V14C5.00008 14.5013 5.12579 14.9946 5.36564 15.4348C5.60548 15.875 5.95182 16.2481 6.373 16.52C6.46142 16.5557 6.54426 16.6038 6.619 16.663C7.07627 16.9001 7.58689 17.0155 8.10169 16.998C8.61648 16.9806 9.11811 16.8309 9.55826 16.5633C9.99842 16.2958 10.3623 15.9194 10.6148 15.4704C10.8673 15.0215 11 14.5151 11 14V13H5ZM13 13V14C13 14.7956 13.3161 15.5587 13.8787 16.1213C14.4413 16.6839 15.2044 17 16 17C16.7957 17 17.5587 16.6839 18.1213 16.1213C18.6839 15.5587 19 14.7956 19 14V13H13ZM21 13V14C21 14.5151 21.1327 15.0215 21.3852 15.4704C21.6377 15.9194 22.0016 16.2958 22.4417 16.5633C22.8819 16.8309 23.3835 16.9806 23.8983 16.998C24.4131 17.0155 24.9237 16.9001 25.381 16.663C25.4555 16.6043 25.538 16.5565 25.626 16.521C26.0475 16.2491 26.3941 15.8759 26.6342 15.4355C26.8742 14.9951 27 14.5016 27 14V13H21ZM25 24V18.899C24.0723 19.0886 23.1098 19.0108 22.2246 18.6746C21.3394 18.3384 20.5679 17.7577 20 17C19.5343 17.621 18.9303 18.125 18.2361 18.4721C17.5418 18.8193 16.7762 19 16 19C15.2238 19 14.4582 18.8193 13.7639 18.4721C13.0697 18.125 12.4657 17.621 12 17C11.4319 17.7575 10.6604 18.3381 9.77526 18.6742C8.89011 19.0104 7.92771 19.0884 7 18.899V24C7 24.5304 7.21071 25.0391 7.58579 25.4142C7.96086 25.7893 8.46957 26 9 26H23C23.5304 26 24.0391 25.7893 24.4142 25.4142C24.7893 25.0391 25 24.5304 25 24Z" fill="black"/>
</svg>
