<svg width="32" height="32" viewBox="0 0 32 32" fill="none" xmlns="http://www.w3.org/2000/svg">
<path d="M20.707 13.707C20.8892 13.5184 20.99 13.2658 20.9877 13.0036C20.9854 12.7414 20.8803 12.4906 20.6949 12.3052C20.5095 12.1198 20.2586 12.0146 19.9964 12.0123C19.7342 12.01 19.4816 12.1108 19.293 12.293L14.5 17.086L12.707 15.293C12.5184 15.1108 12.2658 15.01 12.0036 15.0123C11.7414 15.0146 11.4906 15.1198 11.3052 15.3052C11.1198 15.4906 11.0146 15.7414 11.0124 16.0036C11.0101 16.2658 11.1109 16.5184 11.293 16.707L13.793 19.207C13.9806 19.3945 14.2349 19.4998 14.5 19.4998C14.7652 19.4998 15.0195 19.3945 15.207 19.207L20.707 13.707Z" fill="black"/>
<path fill-rule="evenodd" clip-rule="evenodd" d="M16.515 4.14299C16.3595 4.04955 16.1814 4.00018 16 4.00018C15.8186 4.00018 15.6405 4.04955 15.485 4.14299L13.038 5.60999C12.3769 6.00669 11.6331 6.24515 10.8646 6.30674C10.0961 6.36832 9.3238 6.25136 8.608 5.96499L7.743 5.61899C7.43961 5.49734 7.11102 5.45193 6.78601 5.48676C6.46099 5.52159 6.14948 5.63559 5.87876 5.81877C5.60804 6.00195 5.38636 6.24872 5.23316 6.53746C5.07996 6.82621 4.9999 7.14812 5 7.47499V17C5 22.518 9.892 28 16 28C22.108 28 27 22.518 27 17V7.47499C26.9997 7.14829 26.9194 6.82664 26.766 6.53816C26.6127 6.24968 26.391 6.00315 26.1204 5.82014C25.8498 5.63712 25.5384 5.52319 25.2136 5.4883C24.8888 5.45341 24.5603 5.49862 24.257 5.61999L23.392 5.96599C22.6762 6.25236 21.9039 6.36932 21.1354 6.30774C20.3669 6.24615 19.6231 6.00769 18.962 5.61099L16.515 4.14299ZM14.066 7.32599L16 6.16599L17.933 7.32599C18.8585 7.88137 19.8999 8.21522 20.9757 8.30143C22.0516 8.38765 23.1329 8.2239 24.135 7.82299L25 7.47699V17C25 21.482 20.937 26 16 26C11.063 26 7 21.482 7 17V7.47699L7.865 7.82299C8.86698 8.22374 9.94805 8.3874 11.0237 8.30119C12.0994 8.21497 13.1406 7.88122 14.066 7.32599Z" fill="black"/>
</svg>
