<svg width="32" height="32" viewBox="0 0 32 32" fill="none" xmlns="http://www.w3.org/2000/svg">
<path d="M20.707 13.707C20.8892 13.5184 20.99 13.2658 20.9877 13.0036C20.9854 12.7414 20.8803 12.4906 20.6949 12.3052C20.5095 12.1198 20.2586 12.0146 19.9964 12.0124C19.7342 12.0101 19.4816 12.1109 19.293 12.293L14.5 17.086L12.707 15.293C12.5184 15.1109 12.2658 15.0101 12.0036 15.0124C11.7414 15.0146 11.4906 15.1198 11.3052 15.3052C11.1198 15.4906 11.0146 15.7414 11.0124 16.0036C11.0101 16.2658 11.1109 16.5184 11.293 16.707L13.793 19.207C13.9806 19.3945 14.2349 19.4998 14.5 19.4998C14.7652 19.4998 15.0195 19.3945 15.207 19.207L20.707 13.707Z" fill="black"/>
<path fill-rule="evenodd" clip-rule="evenodd" d="M16.515 4.14305C16.3595 4.04961 16.1814 4.00024 16 4.00024C15.8186 4.00024 15.6405 4.04961 15.485 4.14305L13.038 5.61005C12.3769 6.00675 11.6331 6.24521 10.8646 6.3068C10.0961 6.36838 9.3238 6.25142 8.608 5.96505L7.743 5.61905C7.43961 5.4974 7.11102 5.45199 6.78601 5.48682C6.46099 5.52165 6.14948 5.63565 5.87876 5.81883C5.60804 6.00201 5.38636 6.24878 5.23316 6.53753C5.07996 6.82627 4.9999 7.14818 5 7.47505V17.0001C5 22.5181 9.892 28.0001 16 28.0001C22.108 28.0001 27 22.5181 27 17.0001V7.47505C26.9997 7.14835 26.9194 6.8267 26.766 6.53822C26.6127 6.24974 26.391 6.00321 26.1204 5.8202C25.8498 5.63718 25.5384 5.52325 25.2136 5.48836C24.8888 5.45347 24.5603 5.49868 24.257 5.62005L23.392 5.96605C22.6762 6.25242 21.9039 6.36938 21.1354 6.3078C20.3669 6.24621 19.6231 6.00775 18.962 5.61105L16.515 4.14305ZM14.066 7.32605L16 6.16605L17.933 7.32605C18.8585 7.88143 19.8999 8.21528 20.9757 8.30149C22.0516 8.38771 23.1329 8.22397 24.135 7.82305L25 7.47705V17.0001C25 21.4821 20.937 26.0001 16 26.0001C11.063 26.0001 7 21.4821 7 17.0001V7.47705L7.865 7.82305C8.86698 8.2238 9.94805 8.38746 11.0237 8.30125C12.0994 8.21503 13.1406 7.88128 14.066 7.32605Z" fill="black"/>
</svg>
