<svg width="20" height="22" viewBox="0 0 20 22" fill="none" xmlns="http://www.w3.org/2000/svg">
<path fill-rule="evenodd" clip-rule="evenodd" d="M14.5436 12.7812C15.8941 11.9034 16.8989 10.6663 17.4141 9.24707C17.9294 7.82789 17.9286 6.29945 17.4119 4.88069C16.8952 3.46192 15.8891 2.22564 14.5378 1.34891C13.1864 0.472181 11.5591 0 9.88889 0C8.21872 0 6.5914 0.472181 5.24002 1.34891C3.88865 2.22564 2.88256 3.46192 2.36587 4.88069C1.84918 6.29945 1.8484 7.82789 2.36364 9.24707C2.87888 10.6663 3.88371 11.9034 5.23419 12.7812C3.70146 13.2739 2.37628 14.1772 1.43951 15.3676C0.502748 16.5581 4.06681e-05 17.9778 0 19.4329V20.3163C0 20.5506 0.104186 20.7753 0.289639 20.941C0.475092 21.1066 0.726619 21.1997 0.988889 21.1997C1.25116 21.1997 1.50269 21.1066 1.68814 20.941C1.87359 20.7753 1.97778 20.5506 1.97778 20.3163V19.4329C1.97778 18.0272 2.6029 16.6791 3.71561 15.6851C4.82833 14.6912 6.33749 14.1327 7.91111 14.1327H11.8667C13.4403 14.1327 14.9495 14.6912 16.0622 15.6851C17.1749 16.6791 17.8 18.0272 17.8 19.4329V20.3163C17.8 20.5506 17.9042 20.7753 18.0896 20.941C18.2751 21.1066 18.5266 21.1997 18.7889 21.1997C19.0512 21.1997 19.3027 21.1066 19.4881 20.941C19.6736 20.7753 19.7778 20.5506 19.7778 20.3163V19.4329C19.7777 17.9778 19.275 16.5581 18.3383 15.3676C17.4015 14.1772 16.0763 13.2739 14.5436 12.7812ZM3.95556 7.0658C3.95556 5.6601 4.58067 4.31197 5.69339 3.31799C6.8061 2.32401 8.31527 1.76559 9.88889 1.76559C11.4625 1.76559 12.9717 2.32401 14.0844 3.31799C15.1971 4.31197 15.8222 5.6601 15.8222 7.0658C15.8222 8.4715 15.1971 9.81963 14.0844 10.8136C12.9717 11.8076 11.4625 12.366 9.88889 12.366C8.31527 12.366 6.8061 11.8076 5.69339 10.8136C4.58067 9.81963 3.95556 8.4715 3.95556 7.0658Z" fill="#2A497E"/>
</svg>
